:FULLY-SPECIFIED
:FORCE-ALL-JOINTS-BE-3DOF
:DEGREES
679
root 5.32279 16.4058 1.11845 17.1621 -29.5563 0.28642
lfemur -32.9106 25.0187 -10.831
ltibia 94.2597 -0 0
lfoot 7.35602 -5.05579 0.415007
ltoes 8.22503 -0 0
rfemur -36.6844 -14.9847 25.8136
rtibia 53.8723 -0 0
rfoot -18.3833 -6.32848 0.390452
rtoes 4.23659 -0 0
lowerback -0.370596 -6.4199 -0.610799
upperback -2.23695 -8.61462 0.166921
thorax -1.92269 -4.28546 0.585576
lowerneck -9.58342 -3.81563 0.551182
upperneck 1.40206 -5.29747 2.90737
head 2.16781 -2.55966 0.624506
lclavicle 2.82412e-15 9.52764e-16 2.48399e-30
lhumerus 24.8907 -65.6875 48.427
lradius 87.7704 -0 0
lwrist 28.5761 0 0
lhand -13.7587 -1.55086 0.10152
lfingers 7.12502 -0 0
lthumb 12.3598 28.0247 0.091991
rclavicle 2.82412e-15 9.52764e-16 2.48399e-30
rhumerus -54.1711 -11.1862 -39.3864
rradius 69.8034 -0 0
rwrist -16.0886 0 0
rhand -29.0562 -48.7 -0.0956025
rfingers 7.12502 -0 0
rthumb -2.40563 -78.65 -0.0934336
680
root 5.3136 16.5255 1.27907 16.9854 -31.3165 0.332602
lfemur -33.9955 24.2774 -8.3626
ltibia 97.0632 -0 0
lfoot 7.76694 -5.11328 0.427205
ltoes 9.86907 -0 0
rfemur -34.4144 -14.2476 24.7952
rtibia 50.6134 -0 0
rfoot -16.7502 -5.69382 0.516586
rtoes 4.24104 -0 0
lowerback -0.171596 -6.33119 -0.704249
upperback -2.2247 -8.50554 -0.0315439
thorax -2.03824 -4.229 0.453969
lowerneck -9.36962 -3.8206 0.537881
upperneck 1.5461 -5.31029 3.05994
head 2.18403 -2.56312 0.679068
lclavicle 4.41593e-17 2.72407e-15 2.8318e-30
lhumerus 28.1204 -63.3965 43.6038
lradius 87.6478 -0 0
lwrist 28.6758 0 0
lhand -14.2815 -1.90438 0.117945
lfingers 7.12502 -0 0
lthumb 11.8554 27.6941 0.10675
rclavicle 4.41593e-17 2.72407e-15 2.8318e-30
rhumerus -53.6325 -10.785 -37.486
rradius 71.6326 -0 0
rwrist -15.5926 0 0
rhand -29.4001 -48.3597 -0.11156
rfingers 7.12502 -0 0
rthumb -2.73768 -78.3037 -0.108986
681
root 5.3057 16.6519 1.43874 16.7635 -32.9265 0.410852
lfemur -35.131 23.5155 -5.78324
ltibia 99.8978 -0 0
lfoot 8.11402 -5.13475 0.425925
ltoes 11.5802 -0 0
rfemur -32.0683 -13.4204 23.7418
rtibia 47.1805 -0 0
rfoot -14.9746 -4.98546 0.63472
rtoes 4.18137 -0 0
lowerback 0.047172 -6.22632 -0.814987
upperback -2.20383 -8.37541 -0.23711
thorax -2.15618 -4.16224 0.325902
lowerneck -9.13717 -3.84552 0.515327
upperneck 1.72304 -5.35042 3.23114
head 2.209 -2.57935 0.738427
lclavicle -2.80792e-15 4.57381e-15 3.09926e-30
lhumerus 30.6035 -60.8408 39.4039
lradius 87.4399 -0 0
lwrist 28.7731 0 0
lhand -14.8415 -2.27721 0.131456
lfingers 7.12502 -0 0
lthumb 11.3152 27.3461 0.118858
rclavicle -2.80792e-15 4.57381e-15 3.09926e-30
rhumerus -52.8662 -10.3932 -35.6
rradius 73.692 -0 0
rwrist -15.1365 0 0
rhand -29.759 -47.941 -0.124843
rfingers 7.12502 -0 0
rthumb -3.08429 -77.8784 -0.121927
682
root 5.299 16.784 1.59713 16.5022 -34.4037 0.518877
lfemur -36.3087 22.7489 -3.12385
ltibia 102.738 -0 0
lfoot 8.40305 -5.12395 0.412722
ltoes 13.3398 -0 0
rfemur -29.6784 -12.5109 22.6744
rtibia 43.6189 -0 0
rfoot -13.082 -4.21993 0.736579
rtoes 4.06794 -0 0
lowerback 0.281645 -6.1073 -0.939776
upperback -2.17582 -8.22698 -0.447404
thorax -2.27558 -4.08658 0.201654
lowerneck -8.89016 -3.88746 0.484733
upperneck 1.92659 -5.41416 3.41696
head 2.24114 -2.60653 0.801486
lclavicle -5.68421e-15 6.47932e-15 3.27289e-30
lhumerus 32.4336 -58.0855 35.7497
lradius 87.1561 -0 0
lwrist 28.8685 0 0
lhand -15.4303 -2.66368 0.141308
lfingers 7.12502 -0 0
lthumb 10.7471 26.9857 0.127653
rclavicle -5.68421e-15 6.47932e-15 3.27289e-30
rhumerus -51.9039 -10.0241 -33.7345
rradius 75.937 -0 0
rwrist -14.7163 0 0
rhand -30.1291 -47.4568 -0.134664
rfingers 7.12502 -0 0
rthumb -3.44175 -77.3877 -0.131489
683
root 5.29342 16.9204 1.7539 16.2075 -35.7654 0.653679
lfemur -37.5183 21.9918 -0.415278
ltibia 105.557 -0 0
lfoot 8.63987 -5.08455 0.389289
ltoes 15.1291 -0 0
rfemur -27.2755 -11.5295 21.612
rtibia 39.974 -0 0
rfoot -11.0981 -3.41427 0.815264
rtoes 3.91111 -0 0
lowerback 0.527774 -5.97617 -1.0754
upperback -2.14218 -8.06299 -0.660064
thorax -2.39549 -4.00342 0.0815158
lowerneck -8.63271 -3.94352 0.447328
upperneck 2.15044 -5.49775 3.61343
head 2.27893 -2.64287 0.867151
lclavicle -8.5368e-15 8.41792e-15 3.34454e-30
lhumerus 33.7149 -55.1906 32.5531
lradius 86.8054 -0 0
lwrist 28.9621 0 0
lhand -16.0394 -3.05818 0.146962
lfingers 7.12502 -0 0
lthumb 10.1595 26.6184 0.132657
rclavicle -8.5368e-15 8.41792e-15 3.34454e-30
rhumerus -50.778 -9.68863 -31.8968
rradius 78.3229 -0 0
rwrist -14.328 0 0
rhand -30.5068 -46.9206 -0.140423
rfingers 7.12502 -0 0
rthumb -3.80641 -76.8446 -0.13709
684
root 5.28889 17.0601 1.90874 15.8863 -37.0289 0.811666
lfemur -38.7479 21.2561 2.31162
ltibia 108.331 -0 0
lfoot 8.83023 -5.02019 0.357424
ltoes 16.9293 -0 0
rfemur -24.8885 -10.4888 20.5714
rtibia 36.291 -0 0
rfoot -9.04902 -2.58601 0.865534
rtoes 3.72125 -0 0
lowerback 0.78153 -5.835 -1.21867
upperback -2.10434 -7.88624 -0.872734
thorax -2.51497 -3.91418 -0.034218
lowerneck -8.3689 -4.01081 0.404366
upperneck 2.38832 -5.59739 3.81656
head 2.32081 -2.68653 0.934326
lclavicle -1.13178e-14 1.0367e-14 3.31154e-30
lhumerus 34.546 -52.2108 29.7326
lradius 86.3972 -0 0
lwrist 29.0544 0 0
lhand -16.6605 -3.45503 0.148102
lfingers 7.12502 -0 0
lthumb 9.5604 26.2492 0.133592
rclavicle -1.13178e-14 1.0367e-14 3.31154e-30
rhumerus -49.521 -9.39518 -30.0945
rradius 80.8051 -0 0
rwrist -13.9675 0 0
rhand -30.888 -46.3455 -0.14174
rfingers 7.12502 -0 0
rthumb -4.1746 -76.2627 -0.13836
685
root 5.28533 17.2018 2.06132 15.5459 -38.2116 0.988768
lfemur -39.9839 20.5514 5.02582
ltibia 111.032 -0 0
lfoot 8.97991 -4.9345 0.319007
ltoes 18.7219 -0 0
rfemur -22.5451 -9.40373 19.5669
rtibia 32.6155 -0 0
rfoot -6.96074 -1.75304 0.884022
rtoes 3.50872 -0 0
lowerback 1.03891 -5.68592 -1.36643
upperback -2.06371 -7.69949 -1.08308
thorax -2.63306 -3.82024 -0.145243
lowerneck -8.10284 -4.08644 0.35713
upperneck 2.63398 -5.7092 4.02242
head 2.36525 -2.73571 1.00192
lclavicle -1.39793e-14 1.23038e-14 3.17674e-30
lhumerus 35.0132 -49.1963 27.2194
lradius 85.9408 -0 0
lwrist 29.1455 0 0
lhand -17.2849 -3.84858 0.144647
lfingers 7.12502 -0 0
lthumb 8.95799 25.8835 0.130392
rclavicle -1.39793e-14 1.23038e-14 3.17674e-30
rhumerus -48.1659 -9.14955 -28.3364
rradius 83.3388 -0 0
rwrist -13.631 0 0
rhand -31.2691 -45.7449 -0.138475
rfingers 7.12502 -0 0
rthumb -4.54261 -75.6551 -0.135164
686
root 5.28265 17.3445 2.21131 15.1938 -39.3312 1.18055
lfemur -41.2114 19.8849 7.69615
ltibia 113.635 -0 0
lfoot 9.09471 -4.83106 0.275966
ltoes 20.4879 -0 0
rfemur -20.2712 -8.29101 18.6102
rtibia 28.9928 -0 0
rfoot -4.85951 -0.93348 0.86935
rtoes 3.28387 -0 0
lowerback 1.29593 -5.53108 -1.51558
upperback -2.02168 -7.50555 -1.28877
thorax -2.74878 -3.723 -0.251245
lowerneck -7.83864 -4.16754 0.306942
upperneck 2.88121 -5.82922 4.22713
head 2.41073 -2.78856 1.06884
lclavicle -1.64733e-14 1.42057e-14 2.94828e-30
lhumerus 35.1902 -46.1937 24.9589
lradius 85.4452 -0 0
lwrist 29.236 0 0
lhand -17.9044 -4.23317 0.136756
lfingers 7.12502 -0 0
lthumb 8.36043 25.5267 0.123205
rclavicle -1.64733e-14 1.42057e-14 2.94828e-30
rhumerus -46.7457 -8.95496 -26.6317
rradius 85.8795 -0 0
rwrist -13.3145 0 0
rhand -31.6462 -45.1318 -0.13074
rfingers 7.12502 -0 0
rthumb -4.90676 -75.0351 -0.127613
687
root 5.2808 17.4868 2.35839 14.8378 -40.405 1.38229
lfemur -42.4142 19.2613 10.2911
ltibia 116.116 -0 0
lfoot 9.18041 -4.71347 0.23026
ltoes 22.2089 -0 0
rfemur -18.0915 -7.16913 17.7108
rtibia 25.4683 -0 0
rfoot -2.77157 -0.145501 0.822177
rtoes 3.05708 -0 0
lowerback 1.54866 -5.37271 -1.66306
upperback -1.97958 -7.30722 -1.4875
thorax -2.86118 -3.62385 -0.351904
lowerneck -7.58043 -4.25129 0.255159
upperneck 3.12384 -5.95344 4.42683
head 2.45571 -2.84327 1.13401
lclavicle -1.8752e-14 1.605e-14 2.63924e-30
lhumerus 35.1392 -43.2462 22.9098
lradius 84.9199 -0 0
lwrist 29.3259 0 0
lhand -18.5103 -4.60314 0.124821
lfingers 7.12502 -0 0
lthumb 7.77587 25.1838 0.112391
rclavicle -1.8752e-14 1.605e-14 2.63924e-30
rhumerus -45.2931 -8.81208 -24.9902
rradius 88.3824 -0 0
rwrist -13.0139 0 0
rhand -32.0155 -44.5196 -0.118906
rfingers 7.12502 -0 0
rthumb -5.26334 -74.4162 -0.116069
688
root 5.27967 17.6278 2.50224 14.4862 -41.4508 1.58909
lfemur -43.5753 18.6827 12.7792
ltibia 118.446 -0 0
lfoot 9.2428 -4.58531 0.183863
ltoes 23.8659 -0 0
rfemur -16.0291 -6.05789 16.8753
rtibia 22.0872 -0 0
rfoot -0.723032 0.59283 0.745142
rtoes 2.83869 -0 0
lowerback 1.79318 -5.21307 -1.80582
upperback -1.9387 -7.10734 -1.67699
thorax -2.96927 -3.52416 -0.446888
lowerneck -7.33235 -4.33485 0.203181
upperneck 3.35575 -6.07775 4.61777
head 2.49868 -2.89798 1.19635
lclavicle -2.07675e-14 1.78141e-14 2.26704e-30
lhumerus 34.9129 -40.3949 21.0425
lradius 84.374 -0 0
lwrist 29.4157 0 0
lhand -19.0943 -4.95285 0.109453
lfingers 7.12502 -0 0
lthumb 7.21246 24.8602 0.0985019
rclavicle -2.07675e-14 1.78141e-14 2.26704e-30
rhumerus -43.8411 -8.71916 -23.4219
rradius 90.8028 -0 0
rwrist -12.7252 0 0
rhand -32.3732 -43.9216 -0.103596
rfingers 7.12502 -0 0
rthumb -5.60869 -73.8114 -0.101136
